<?xml version="1.0" encoding="UTF-8"?><svg id="a" xmlns="http://www.w3.org/2000/svg" width="18" height="26" viewBox="0 0 18 26"><defs><style>.b{fill:#7cd845;}</style></defs><path class="b" d="M16.38,10.24c.21,.21,.39,.49,.54,.85,.15,.36,.22,.68,.22,.98v12.86c0,.3-.1,.55-.31,.76-.21,.21-.46,.31-.76,.31H1.07c-.3,0-.55-.1-.76-.31-.21-.21-.31-.46-.31-.76V7.07c0-.3,.1-.55,.31-.76,.21-.21,.46-.31,.76-.31H11.07c.3,0,.62,.07,.98,.22,.36,.15,.64,.33,.85,.54l3.48,3.48Zm-4.96-2.72v4.2h4.2c-.07-.22-.16-.37-.25-.46l-3.49-3.49c-.09-.09-.24-.17-.46-.25Zm4.29,17.05V13.14h-4.64c-.3,0-.55-.1-.76-.31-.21-.21-.31-.46-.31-.76V7.43H1.43V24.57H15.71Zm-10.93-2.61v1.18h3.14v-1.18h-.84l1.15-1.8c.04-.05,.07-.11,.11-.18,.04-.07,.07-.12,.08-.15,.02-.03,.03-.04,.04-.04h.02s.03,.07,.06,.11c.01,.03,.03,.06,.05,.08,.02,.03,.04,.06,.07,.09,.03,.03,.05,.07,.07,.09l1.19,1.8h-.85v1.18h3.25v-1.18h-.76l-2.14-3.05,2.18-3.15h.75v-1.19h-3.11v1.19h.83l-1.15,1.77c-.03,.05-.07,.11-.11,.18-.04,.07-.08,.12-.1,.15l-.02,.03h-.02s-.03-.07-.06-.11c-.04-.08-.11-.17-.19-.26l-1.18-1.77h.85v-1.19h-3.24v1.19h.76l2.11,3.04-2.17,3.16h-.76Z"/></svg>